<svg width="24" height="24" viewBox="0 0 24 24" fill="none" xmlns="http://www.w3.org/2000/svg">
<path d="M19 6.6664V17.333C19 18.2126 19 18.6529 18.8149 18.9131C18.6534 19.1402 18.4044 19.2894 18.1279 19.325C17.8113 19.3658 17.423 19.1587 16.6475 18.7451L6.6475 13.4118L6.6438 13.4102C5.7868 12.9531 5.358 12.7244 5.2174 12.4197C5.0947 12.1538 5.0947 11.8469 5.2174 11.5811C5.3582 11.2759 5.788 11.0463 6.6475 10.5879L16.6475 5.2546C17.4236 4.8407 17.8112 4.6343 18.1279 4.6752C18.4044 4.7109 18.6534 4.8599 18.8149 5.0871C19 5.3473 19 5.7868 19 6.6664Z" stroke="#777777" stroke-width="2" stroke-linecap="round" stroke-linejoin="round"/>
<path d="M3.5 20L3.5 4" stroke="#777777" stroke-width="2" stroke-linecap="round"/>
</svg>
