<svg width="24" height="24" viewBox="0 0 24 24" fill="none" xmlns="http://www.w3.org/2000/svg">
<path d="M2.92847 3L2.92857 10L8 15" stroke="#777777" stroke-width="0.5"/>
<path d="M4 9H2V11H4V9Z" fill="#777777"/>
<path d="M4 9H2V11H4V9Z" stroke="#777777" stroke-width="0.5" stroke-linejoin="round"/>
<path d="M4 2H2V4H4V2Z" fill="#777777"/>
<path d="M4 2H2V4H4V2Z" stroke="#777777" stroke-width="0.5" stroke-linejoin="round"/>
<path d="M12 8L7.99982 15" stroke="#777777" stroke-width="2" stroke-linecap="round" stroke-linejoin="round"/>
<path d="M13 7H11V9H13V7Z" fill="#777777"/>
<path d="M13 7H11V9H13V7Z" stroke="#777777" stroke-width="0.5" stroke-linejoin="round"/>
<path d="M9 14H7V16H9V14Z" fill="#777777"/>
<path d="M9 14H7V16H9V14Z" stroke="#777777" stroke-width="0.5" stroke-linejoin="round"/>
<path d="M8 15V21" stroke="#777777" stroke-linecap="round" stroke-linejoin="round"/>
<path d="M9 20H7V22H9V20Z" fill="#777777"/>
<path d="M9 20H7V22H9V20Z" stroke="#777777" stroke-width="0.5" stroke-linejoin="round"/>
<path d="M18 3.77778V6H20.2222M18 10C15.7909 10 14 8.20914 14 6C14 3.79086 15.7909 2 18 2C20.2091 2 22 3.79086 22 6C22 8.20914 20.2091 10 18 10Z" stroke="#777777" stroke-linecap="round" stroke-linejoin="round"/>
</svg>
